<svg xmlns="http://www.w3.org/2000/svg" width="287" height="86" viewBox="0 0 287 86">
  <defs>
    <style>
      .cls-1 {
        fill-rule: evenodd;
      }
    </style>
  </defs>
  <path id="Ibrahim_Jabban" data-name="Ibrahim Jabban" class="cls-1" d="M57.765,78.393c0.427-.811.3-1.878,0.64-3.116a18.354,18.354,0,0,1,.9-2.945c2.561-6.574,6.488-12.422,10.415-18.27,0.256-.384.47-0.811,0.768-1.2,3.5-5.293,7.513-10.5,11.354-15.58,4.1-5.464,7.385-9.391,11.909-14.94,1.921-2.39,4.141-5.592,4.141-8.409,0-2.134-1.281-4.055-4.909-5.208-3.073-.982-7.513-1.11-10.8-1.11H80.09l-8.281.726c-3.714.512-6.531,0.47-10.287,1.11-5.378.982-9.818,1.75-15.025,3.031A19.347,19.347,0,0,0,44.362,13L32.324,16.542c-1.366.427-2.689,0.811-4.055,1.238C22.891,19.572,11.195,24.865,7.31,28.792a7.694,7.694,0,0,0-2.22,2.945,4.159,4.159,0,0,0-.213,1.2c0,1.878,1.579,3.159,2.22,3.159,0.171,0,.256-0.043.256-0.213a0.833,0.833,0,0,0-.043-0.3,11.711,11.711,0,0,0-1.153-1.494,2.065,2.065,0,0,1-.384-1.153c0-1.451,1.537-2.945,2.518-3.714a8.96,8.96,0,0,1,.726-0.6,56.232,56.232,0,0,1,11.226-5.848c2.518-1.025,5.037-1.921,7.683-2.775a225.732,225.732,0,0,1,28.984-7.513c4.61-.9,13.659-2.348,18.227-2.647L87.6,9.413c2.6,0.128,8.793.811,8.793,3.927a8.064,8.064,0,0,1-1.622,3.884c-2.049,3.031-3.329,4.055-5.25,6.531L78.638,37.714c-0.427.555-.726,0.939-1.11,1.451l-3.287,4.653c-5.891,8.665-11.568,16.221-15.58,26.252A21.928,21.928,0,0,0,57.082,76.3C57.039,76.729,57,77.027,57,77.283a1.741,1.741,0,0,0,.427,1.11h0.341ZM74.324,60.977a1.562,1.562,0,0,0,1.11-1.024c1.024-2.049,1.323-1.75,2.646-2.092a18.917,18.917,0,0,0,7-3.756l3.287-2.774a7.462,7.462,0,0,1,2.134-.214h1.153a0.856,0.856,0,0,0,.9-0.341c-0.128-.6-0.768-0.768-1.537-0.768-0.811,0-1.707.171-2.22,0.213,0-.3.128-0.6,0.128-0.9a2.088,2.088,0,0,0-.854-1.537,3.377,3.377,0,0,0-2.305-.683,5.47,5.47,0,0,0-1.921.3c0.171-.427,5.72-7.513,6.275-8.238l6.36-8.2c0.811-1.024,3.756-4.823,3.8-5.933l0.043-.128a1.062,1.062,0,0,0-1.153-1.238H99.082a2.414,2.414,0,0,0-1.025.256c-1.238.512-3.073,2.518-3.97,3.586a52.238,52.238,0,0,0-3.329,4.269c-0.512.768-1.024,1.494-1.537,2.3-1.067,1.537-2.049,3.073-3.073,4.653L81.2,47.062c-0.3.469-.469,0.854-0.768,1.281l-3.457,6.019c-0.64,1.281-2.391,1.75-2.476,3.372v0.043a0.383,0.383,0,0,0,.427.427,9.078,9.078,0,0,0-.854,1.878,1.878,1.878,0,0,0-.085.427A0.408,0.408,0,0,0,74.324,60.977ZM88.2,38.781a13.582,13.582,0,0,1,1.067-1.835,89.9,89.9,0,0,1,5.763-8.11c0.47-.512.854-0.939,1.281-1.451A4.411,4.411,0,0,1,97.8,26.061a117.683,117.683,0,0,1-7.086,9.647A33.606,33.606,0,0,1,88.2,38.781ZM79.66,53.038c0.256-.512,1.494-3.073,1.963-3.33a14.34,14.34,0,0,1,1.622-1.067,6.1,6.1,0,0,1,2.134-.427c0.9,0,1.2.3,1.2,0.683a2.793,2.793,0,0,1-1.11,1.75L81.5,52.142c-0.341.171-.6,0.3-0.9,0.427A3.866,3.866,0,0,1,79.66,53.038ZM77.7,56.282c0.3-.982,1.494-1.665,2.348-2.134A23.969,23.969,0,0,1,83.032,52.7,33.3,33.3,0,0,1,77.7,56.282Zm17.756,2.476a3.987,3.987,0,0,0,2.177-1.025,33.7,33.7,0,0,0,6.147-7.043,0.916,0.916,0,0,0,.213-0.555,0.277,0.277,0,0,0-.256-0.342,0.853,0.853,0,0,0-.47.3,35.7,35.7,0,0,1-6.829,7.129,26.555,26.555,0,0,1,1.494-2.988,4.471,4.471,0,0,0,.726-2.134c0-1.366-1.11-2.092-2.134-3.586,1.537-1.451,3.671-3.159,3.671-4.439a0.431,0.431,0,0,0-.427-0.512c-0.854,0-4.4,2.433-4.439,4.525a42.058,42.058,0,0,0-3.073,3.287,0.825,0.825,0,0,0-.3.64,0.345,0.345,0,0,0,.3.384,0.309,0.309,0,0,0,.256-0.171l3.2-2.988a4.752,4.752,0,0,1,1.2,2.518,4.286,4.286,0,0,1-.683,1.964c-1.2,2.006-1.622,3.244-1.622,3.97C94.6,58.5,94.94,58.758,95.452,58.758Zm12.08-11.483a4.823,4.823,0,0,0-3.159,1.409,7.131,7.131,0,0,0-1.323,1.281,24.232,24.232,0,0,0-2.177,2.775,8.8,8.8,0,0,0-1.537,3.586,1.14,1.14,0,0,0,1.238,1.409c1.024,0,2.39-1.28,3.03-1.836l1.324-1.152c0.427-.342.9-0.854,1.366-1.2a4.432,4.432,0,0,1-.3.9,3.507,3.507,0,0,0-.128.9,1.8,1.8,0,0,0,.213.939,1.3,1.3,0,0,0,1.153.64,7.861,7.861,0,0,0,3.713-1.665l2.305-1.75c0.257-.213.3-0.256,0.555-0.469a3.252,3.252,0,0,0,1.025-1.025,1.293,1.293,0,0,0,.341-0.683,0.83,0.83,0,0,0-.3-0.043c-0.94,0-2.263,1.323-3.2,2.092-0.726.6-2.518,2.134-3.543,2.134,0-2.647,3.372-5.208,3.372-6.446,0-.512-0.6-0.811-2.177-0.811a1.64,1.64,0,0,0-1.75-.982h-0.042Zm-0.3,2.348a0.447,0.447,0,0,1,.469.47,1.274,1.274,0,0,1-.64,1.11c-0.982.982-4.909,4.61-6.189,4.909,0.341-1.281,3.457-4.226,4.439-5.208a7.782,7.782,0,0,1,.9-0.768A1.619,1.619,0,0,1,107.233,49.623Zm2.261,13.489c0.726,0,1.409-1.707,1.964-2.817a40.288,40.288,0,0,1,4.012-6.061c1.11-1.451,4.866-6.147,6.4-6.531a14.074,14.074,0,0,1-.469,1.921c-0.427,1.238-1.751,3.97-1.751,5.464a0.853,0.853,0,0,0,.9,1.025c1.451,0,5.122-3.073,6.573-4.269a1.627,1.627,0,0,0,.641-1.025,0.227,0.227,0,0,0-.256-0.256,2.489,2.489,0,0,0-1.324.683c-1.067.854-3.415,3.073-4.738,3.073,0-1.153,2.006-4.055,2.006-6.061a1.775,1.775,0,0,0-1.494-1.878c-0.725,0-1.408.811-2.091,1.323-0.683.6-1.2,1.153-1.836,1.793l-1.75,1.836a14.953,14.953,0,0,1-1.707,1.878,17.375,17.375,0,0,1,1.835-3.671l2.561-3.031a186.52,186.52,0,0,0,11.355-16.775c0.213-.47,1.707-2.775,1.707-4.055a0.822,0.822,0,0,0-.939-0.9c-2.134,0-7.128,8.324-8.281,10.586-1.366,2.689-3.372,6.147-4.866,8.964-1.622,3.031-1.153,2.561-2.689,4.7l-1.964,4.354c-0.555,1.238-1.494,3.159-2.262,4.653a21.009,21.009,0,0,0-1.75,3.671,3.33,3.33,0,0,0-.214.939A0.4,0.4,0,0,0,109.494,63.112ZM120.08,42.324l3.458-6.232c0.64-1.11,5.464-9.092,6.531-9.391l-1.11,2.134C127.764,30.927,120.678,41.9,120.08,42.324Zm9.86,3.884c0.768,0,2.646-2.049,2.646-2.647,0-.854-0.256-1.2-0.64-1.2-0.9,0-2.305,1.878-2.305,3.33C129.641,46.037,129.769,46.208,129.94,46.208ZM126.4,55.77a2.787,2.787,0,0,0,1.28-.384,0.747,0.747,0,0,0,.6-0.811,2.175,2.175,0,0,0-.384-0.085,1.355,1.355,0,0,1-.726.213c-0.213,0-.3-0.043-0.3-0.171a1.867,1.867,0,0,1,.086-0.427c0.341-.939,2.9-5.037,2.9-5.592,0-.512-0.512-0.555-0.939-0.555h-0.427c-0.384,0-1.152,1.793-1.366,2.22-0.17.3-.3,0.47-0.469,0.811a12.438,12.438,0,0,0-1.153,3.628A0.923,0.923,0,0,0,126.4,55.77Zm2.9,1.921c0.854,0,2.22-1.878,2.6-2.39l3.5-4.482c0.9-.982,1.665-2.006,2.006-2.006,0.086,0,.128.085,0.128,0.3a22.918,22.918,0,0,1-1.408,4.781,6.692,6.692,0,0,0-.513,2.049c0,0.3.086,0.427,0.257,0.427a5.338,5.338,0,0,0,2.006-1.622l3.073-3.5c0.811-.768,1.665-2.092,2.647-2.6-0.214.9-1.366,2.774-1.836,3.884A10.6,10.6,0,0,0,140.7,55.3a0.912,0.912,0,0,0,1.067.939c0.939,0,2.134-.64,2.177-1.409-0.9,0-.64.341-1.451,0.341,0-.768,1.579-3.671,2.049-4.482a9.444,9.444,0,0,0,.982-2.775,0.665,0.665,0,0,0-.769-0.726,1.851,1.851,0,0,0-.9.213,6.281,6.281,0,0,0-1.921,1.366l-4.4,5.293c0.086-.384.256-0.768,0.384-1.2,0.129-.384.257-0.726,0.385-1.11a14.425,14.425,0,0,0,.768-3.458,1.535,1.535,0,0,0-.512-1.281,1.377,1.377,0,0,0-.769-0.256,3.39,3.39,0,0,0-1.536.64,2.59,2.59,0,0,0,.256-1.024l-0.811-.427h-0.427c-1.494,1.28-1.793,1.707-1.793,2.006,0,0.171.128,0.3,0.128,0.512V48.6c0,0.085-1.579,2.476-1.793,2.775L129.342,55.9a2.53,2.53,0,0,0-.513,1.153,0.977,0.977,0,0,0,.128.469A0.39,0.39,0,0,0,129.3,57.691Zm32.1,20.7,0.213-.128c0.129-.043,3.074-0.427,4.525-0.768,5.933-1.494,14.3-5.506,19.422-8.622l3.372-2.305c2.391-1.75,5.806-3.714,8.239-5.72,0.555-.427,1.024-0.811,1.579-1.281l4.525-3.8c2.6-2.006,1.451-2.732,5.378-3.159l12.678-1.28c1.067-.128,1.835.171,2.305-0.555a0.857,0.857,0,0,0-.811-0.512,4.654,4.654,0,0,0-.726.043c-0.6.043-1.408,0.085-2.049,0.171-1.366.213-2.817,0.128-4.226,0.3-1.28.171-2.646,0.3-4.1,0.427-1.324.085-2.732,0.427-4.056,0.427,0.214-.3.427-0.427,0.641-0.726l3.244-3.244c0.854-1.067,3.329-3.5,4.439-4.824,1.409-1.793,1.836-2.262,3.244-4.354,2.86-4.268,5.976-9.22,6.958-14.428a6.659,6.659,0,0,0,.171-1.366c0.042-1.2.171-2.177,0.171-3.073,0-1.537-.342-2.9-2.092-5.122-1.2-1.537-3.543-2.39-5.378-3.329-2.647-1.323-6.4-1.878-9.519-2.262-0.6-.043-1.153-0.043-1.879-0.085a11.27,11.27,0,0,0-1.237-.085,0.952,0.952,0,0,1-.555-0.128h-3.714a0.606,0.606,0,0,1-.256.085l-3.714.171c-2.006.3-5.122,0.427-7.555,0.811a124.557,124.557,0,0,0-17.544,3.671,79.8,79.8,0,0,0-13.873,5.208,27.732,27.732,0,0,0-5.208,3.287,11.853,11.853,0,0,0-1.067,1.024,5.716,5.716,0,0,0-1.238,1.921,1.422,1.422,0,0,1-.341.768V26.53c0.427,0.47.982,2.646,2.049,2.646a0.93,0.93,0,0,0,.6-0.213c-0.17-.64-1.237-1.281-1.237-2.476a3.018,3.018,0,0,1,.384-1.323c0.9-1.665,4.4-3.884,6.1-4.824,0.469-.256.725-0.427,1.195-0.64A80.288,80.288,0,0,1,173.6,14.663a127.393,127.393,0,0,1,17.843-3.97,89.749,89.749,0,0,1,13.147-1.024c9.348,0,19.337,1.921,19.337,10.117,0,5.25-3.33,11.824-5.848,15.965a56.909,56.909,0,0,1-4.952,6.83c-1.707,2.006-4.866,5.506-6.275,7.342a5.2,5.2,0,0,1-.426.47c-0.214.213-.214,0.3-0.427,0.512a3.742,3.742,0,0,0-.384.427c-0.812,1.067-1.11.726-3.543,1.152-2.946.47-6.275,0.982-9.178,1.579a107.2,107.2,0,0,0-20.7,6.189,50.276,50.276,0,0,0-6.1,2.945,41.343,41.343,0,0,0-5.335,3.543,22.507,22.507,0,0,0-2.348,2.134c-1.11,1.281-2.732,4.012-2.732,5.891a3.141,3.141,0,0,0,1.238,2.689,4.044,4.044,0,0,0,2.049.683l0.768,0.256H161.4Zm0.085-1.238h-1.835c-1.067,0-2.86-.683-2.86-1.665a4.622,4.622,0,0,1,1.281-3.415,22.731,22.731,0,0,1,4.482-4.1,37.552,37.552,0,0,1,8.11-4.653l5.933-2.689,9.519-3.244c1.878-.64,8.367-2.177,10.287-2.6,1.11-.213,2.305-0.512,3.543-0.768,0.769-.128,2.9-0.64,3.629-0.64a5.4,5.4,0,0,1-.939,1.024L200.5,56.367c-0.427.3-.683,0.683-1.11,0.982l-3.372,2.817a91.219,91.219,0,0,1-17.288,11.44c-0.512.256-.939,0.384-1.451,0.64-0.469.256-.9,0.469-1.366,0.726C172.11,74.722,165.75,77.155,161.481,77.155Zm65.22-29.88a4.825,4.825,0,0,0-3.159,1.409,7.131,7.131,0,0,0-1.323,1.281,24.232,24.232,0,0,0-2.177,2.775,8.8,8.8,0,0,0-1.537,3.586,1.14,1.14,0,0,0,1.238,1.409c1.024,0,2.39-1.28,3.031-1.836l1.323-1.152c0.427-.342.9-0.854,1.366-1.2a4.432,4.432,0,0,1-.3.9,3.507,3.507,0,0,0-.128.9,1.8,1.8,0,0,0,.213.939,1.3,1.3,0,0,0,1.153.64,7.861,7.861,0,0,0,3.713-1.665l2.3-1.75c0.257-.213.3-0.256,0.555-0.469A3.252,3.252,0,0,0,234,52.013a1.293,1.293,0,0,0,.341-0.683,0.83,0.83,0,0,0-.3-0.043c-0.94,0-2.263,1.323-3.2,2.092-0.726.6-2.518,2.134-3.543,2.134,0-2.647,3.372-5.208,3.372-6.446,0-.512-0.6-0.811-2.177-0.811a1.64,1.64,0,0,0-1.75-.982H226.7Zm-0.3,2.348a0.447,0.447,0,0,1,.469.47,1.274,1.274,0,0,1-.64,1.11c-0.982.982-4.909,4.61-6.189,4.909,0.341-1.281,3.457-4.226,4.439-5.208a7.782,7.782,0,0,1,.9-0.768A1.619,1.619,0,0,1,226.4,49.623ZM240.231,65.8c0.683,0,1.323-2.262,1.451-2.689,1.025-2.988,1.067-1.793,3.629-3.031a29.3,29.3,0,0,0,6.573-4.482,13.128,13.128,0,0,0,1.153-1.067c0.683-.768,1.152-1.964,2.219-2.22a7.094,7.094,0,0,1,2.049-.256c0.811,0,1.537.085,2.049,0.085a1.05,1.05,0,0,0,1.153-.64c0-.427-1.537-0.469-2.988-0.469a8.464,8.464,0,0,0-1.836.128c0.043-.726.384-1.067,0.384-1.622a2.489,2.489,0,0,0-.213-0.854,3.031,3.031,0,0,0-2.988-1.537c-1.494,0-2.262.726-3.543,1.024,0.342-1.2,7.171-11.312,7.555-11.867a17.035,17.035,0,0,1,2.177-2.732,16.322,16.322,0,0,0,1.238-1.2c1.494-1.835,3.415-3.415,4.738-5.165a4.308,4.308,0,0,0,1.068-2.476,0.735,0.735,0,0,0-.726-0.854c-0.555,0-1.409.427-2.6,1.579a31.083,31.083,0,0,0-4.354,5.122,42.858,42.858,0,0,1-4.012,5.464l-1.665,1.494-9.647,9.306a2.512,2.512,0,0,1-.854.683,7.456,7.456,0,0,0-1.835-.3,7.975,7.975,0,0,0-2.006.256,12.234,12.234,0,0,1,1.323-1.707c1.024-1.153,2.945-3.842,3.884-5.165l3.757-5.25c1.664-2.177,5.25-7.6,5.335-9.86a0.784,0.784,0,0,0-.811-0.939,2.272,2.272,0,0,0-.853.213c-2.818,1.366-6.83,6.958-8.5,9.434A106.026,106.026,0,0,0,233.1,51.8c-0.982,2.3-1.238,1.793-1.409,3.116-0.214,1.707-1.793,2.988-1.793,5.592a0.824,0.824,0,0,0,1.025-.555c0.9-2.39,1.707-5.037,3.2-7,0.854-1.153,1.707-2.22,2.6-3.33,1.067-1.323,2.732-1.366,4.439-1.366-0.171.768-1.921,2.006-2.6,2.646-1.152,1.153-2.86,2.561-3.884,3.842-0.214.213-2.348,2.39-2.348,3.5,0,0.384.256,0.64,0.939,0.64,2.433-.128,10.159-4.823,10.159-9.007a3.419,3.419,0,0,0-.341-1.409l2.348-2.092c1.622-1.281,5.463-5.891,6.787-6.574a17.543,17.543,0,0,1-1.75,3.116l-4.269,8.025-0.768,1.579c-2.818,5.891-2.519,3.372-3.885,5.933a2.044,2.044,0,0,0-.384,1.024,7.715,7.715,0,0,1,.256,1.2c0,1.2-1.622,3.415-1.622,4.525A0.516,0.516,0,0,0,240.231,65.8Zm-4.055-17.544a42.861,42.861,0,0,1,2.006-3.884,110.536,110.536,0,0,1,8.665-13.4c0.982-1.238,3.074-4.012,4.354-4.866a30.192,30.192,0,0,1-2.476,4.525c-2.048,3.073-4.268,6.488-6.573,9.69l-2.988,4.012A36.131,36.131,0,0,1,236.176,48.257Zm9.6,6.36a5.723,5.723,0,0,1,.64-1.366c0.769-1.281,1.153-2.518,2.434-3.458a8.188,8.188,0,0,1,3.969-1.622,0.964,0.964,0,0,1,1.153,1.024,4.458,4.458,0,0,1-.342,1.366c-0.6,1.494-.9,1.067-3.2,1.921a24.591,24.591,0,0,0-3.543,1.579A6.739,6.739,0,0,1,245.78,54.617Zm-11.61,2.561a1.993,1.993,0,0,1,.853-1.024l5.848-5.507a9.972,9.972,0,0,1,.982-0.939,2.8,2.8,0,0,1-.64,1.281A31.379,31.379,0,0,1,234.17,57.178Zm9.561,1.579a2.692,2.692,0,0,1,1.494-1.878,36.492,36.492,0,0,1,6.446-3.586,12.654,12.654,0,0,1-3.5,3.2l-3.2,1.75C244.542,58.459,244.115,58.587,243.731,58.758Zm20.957-11.483a4.825,4.825,0,0,0-3.159,1.409,7.131,7.131,0,0,0-1.323,1.281,24.344,24.344,0,0,0-2.177,2.775,8.8,8.8,0,0,0-1.537,3.586,1.14,1.14,0,0,0,1.238,1.409c1.025,0,2.39-1.28,3.031-1.836l1.323-1.152c0.427-.342.9-0.854,1.366-1.2a4.432,4.432,0,0,1-.3.9,3.507,3.507,0,0,0-.128.9,1.788,1.788,0,0,0,.214.939,1.3,1.3,0,0,0,1.152.64,7.86,7.86,0,0,0,3.714-1.665l2.305-1.75c0.256-.213.3-0.256,0.555-0.469a3.262,3.262,0,0,0,1.024-1.025,1.3,1.3,0,0,0,.342-0.683,0.835,0.835,0,0,0-.3-0.043c-0.939,0-2.263,1.323-3.2,2.092-0.725.6-2.518,2.134-3.543,2.134,0-2.647,3.373-5.208,3.373-6.446,0-.512-0.6-0.811-2.177-0.811a1.641,1.641,0,0,0-1.75-.982h-0.043Zm-0.3,2.348a0.448,0.448,0,0,1,.47.47,1.275,1.275,0,0,1-.641,1.11c-0.981.982-4.909,4.61-6.189,4.909,0.341-1.281,3.457-4.226,4.439-5.208a7.709,7.709,0,0,1,.9-0.768A1.615,1.615,0,0,1,264.389,49.623Zm4.695,8.025a0.919,0.919,0,0,0,.811-0.427l3.585-4.738c0.427-.6,2.9-3.842,4.269-4.653a0.566,0.566,0,0,1,.3-0.128c0.213,0,.213.213,0.213,0.342v0.128c0,2.134-2.433,5.037-2.433,7.47,0,0.683.3,1.2,1.451,1.2,1.409,0,3.458-2.262,4.482-3.244a8.694,8.694,0,0,0,.6-0.683,3.537,3.537,0,0,0,.768-1.11,0.151,0.151,0,0,0-.171-0.128,1.753,1.753,0,0,0-.3.085,14.925,14.925,0,0,0-2.049,1.75,11.812,11.812,0,0,1-2.988,2.134c0.725-3.2,2.817-5.464,2.817-7.342a1.653,1.653,0,0,0-1.878-1.451c-2.6,0-3.458,2.476-4.61,3.244a7.375,7.375,0,0,0,.768-2.134,0.741,0.741,0,0,0-.9-0.768c-0.982,0-1.281,1.2-1.793,2.22l-2.476,5.037a8.457,8.457,0,0,0-1.024,2.6A0.509,0.509,0,0,0,269.084,57.648Z"/>
</svg>
